<mxfile host="app.diagrams.net" modified="2024-02-02T11:50:27.922Z" agent="Mozilla/5.0 (Macintosh; Intel Mac OS X 10_15_7) AppleWebKit/537.36 (KHTML, like Gecko) Chrome/121.0.0.0 Safari/537.36" version="23.1.1" etag="F5QdKVPNsfvXmRgyui2j" type="github">
  <diagram name="Seite-1" id="XWozjzximu0WDWtuoebJ">
    <mxGraphModel>
      <root>
        <mxCell id="0" />
        <mxCell id="1" parent="0" />
      </root>
    </mxGraphModel>
  </diagram>
</mxfile>
